# Blender v2.82 (sub 7) OBJ File: ''
# www.blender.org
v 0.374382 0.374382 0.038096
v 0.610323 0.610323 1.131042
v 0.374382 -0.374382 0.038096
v 0.610323 -0.610323 1.131042
v -0.374382 0.374382 0.038096
v -0.610323 0.610323 1.131042
v -0.374382 -0.374382 0.038096
v -0.610323 -0.610323 1.131042
v 0.000000 2.249977 0.575798
v 0.610323 -0.610323 0.038096
v 0.610323 0.610323 0.038096
v -0.610323 -0.610323 0.038096
v -0.610323 0.610323 0.038096
v 0.374382 -0.374382 -0.398765
v 0.374382 0.374382 -0.398765
v -0.374382 -0.374382 -0.398765
v -0.374382 0.374382 -0.398765
v 0.610323 -2.037533 1.023487
v 0.610323 -2.037533 0.664858
v -0.610323 -2.037533 0.664858
v -0.610323 -2.037533 1.023487
v 0.863319 -1.071818 -0.724684
v 0.863319 1.071818 -0.724684
v -0.863319 -1.071818 -0.724684
v -0.863319 1.071818 -0.724684
v 0.863319 -1.071818 -1.006074
v 0.863319 1.071818 -1.006074
v -0.863319 -1.071818 -1.006074
v -0.863319 1.071818 -1.006074
vt 0.375000 0.250000
vt 0.625000 0.000000
vt 0.375000 0.000000
vt 0.625000 0.500000
vt 0.375000 0.500000
vt 0.375000 0.500000
vt 0.375000 0.750000
vt 0.625000 0.000000
vt 0.326677 0.701677
vt 0.173323 0.701677
vt 0.326677 0.701677
vt 0.625000 0.750000
vt 0.875000 0.500000
vt 0.125000 0.750000
vt 0.125000 0.750000
vt 0.625000 0.750000
vt 0.875000 0.750000
vt 0.375000 0.750000
vt 0.125000 0.500000
vt 0.173323 0.548323
vt 0.326677 0.548323
vt 0.326677 0.548323
vt 0.326677 0.548323
vt 0.173323 0.548323
vt 0.173323 0.701677
vt 0.625000 0.250000
vt 0.375000 0.250000
vt 0.875000 0.500000
vt 0.625000 0.250000
vt 0.326677 0.548323
vt 0.326677 0.701677
vt 0.173323 0.701677
vt 0.173323 0.548323
vt 0.173323 0.701677
vt 0.173323 0.548323
vt 0.326677 0.701677
vt 0.625000 0.500000
vt 0.125000 0.500000
vn -1.0000 0.0000 0.0000
vn 1.0000 -0.0000 0.0000
vn -0.9372 -0.3488 0.0000
vn 0.0000 -1.0000 0.0000
vn 0.0000 0.0000 -1.0000
vn 0.0000 -0.3116 0.9502
vn 0.0000 -0.3207 -0.9472
vn 0.9372 -0.3488 0.0000
vn 0.0000 0.0000 1.0000
vn 0.5547 0.0000 -0.8321
vn 0.0000 1.0000 0.0000
vn 0.0000 0.4021 0.9156
vn 0.0000 0.0751 -0.9972
vn -0.5547 0.0000 -0.8321
vn 0.0000 -0.4234 -0.9060
vn 0.0000 0.4234 -0.9060
s off
f 10/1/1 2/2/1 11/3/1
f 8/4/2 20/5/2 12/6/2
f 13/7/2 8/4/2 12/6/2
f 2/2/3 9/8/3 11/3/3
f 17/9/4 1/10/4 5/11/4
f 6/12/5 4/13/5 8/4/5
f 11/14/6 9/15/6 13/7/6
f 6/12/7 9/16/7 2/17/7
f 13/7/8 9/18/8 6/12/8
f 10/19/9 1/10/9 3/20/9
f 12/6/9 3/20/9 7/21/9
f 13/7/9 7/21/9 5/11/9
f 11/14/9 5/11/9 1/10/9
f 24/22/10 17/9/10 16/23/10
f 14/24/11 7/21/11 3/20/11
f 16/23/2 5/11/2 7/21/2
f 15/25/1 3/20/1 1/10/1
f 20/5/11 18/26/11 19/27/11
f 20/5/12 10/19/12 12/6/12
f 18/28/13 8/4/13 4/13/13
f 19/27/1 4/29/1 10/1/1
f 28/30/2 25/31/2 24/22/2
f 23/32/14 14/24/14 15/25/14
f 25/31/15 15/25/15 17/9/15
f 22/33/16 16/23/16 14/24/16
f 27/34/9 28/30/9 26/35/9
f 27/34/1 22/33/1 23/32/1
f 29/36/4 23/32/4 25/31/4
f 26/35/11 24/22/11 22/33/11
f 10/1/1 4/29/1 2/2/1
f 8/4/2 21/37/2 20/5/2
f 13/7/2 6/12/2 8/4/2
f 17/9/4 15/25/4 1/10/4
f 6/12/5 2/17/5 4/13/5
f 10/19/9 11/14/9 1/10/9
f 12/6/9 10/19/9 3/20/9
f 13/7/9 12/6/9 7/21/9
f 11/14/9 13/7/9 5/11/9
f 24/22/10 25/31/10 17/9/10
f 14/24/11 16/23/11 7/21/11
f 16/23/2 17/9/2 5/11/2
f 15/25/1 14/24/1 3/20/1
f 20/5/11 21/37/11 18/26/11
f 20/5/12 19/38/12 10/19/12
f 18/28/13 21/37/13 8/4/13
f 19/27/1 18/26/1 4/29/1
f 28/30/2 29/36/2 25/31/2
f 23/32/14 22/33/14 14/24/14
f 25/31/15 23/32/15 15/25/15
f 22/33/16 24/22/16 16/23/16
f 27/34/9 29/36/9 28/30/9
f 27/34/1 26/35/1 22/33/1
f 29/36/4 27/34/4 23/32/4
f 26/35/11 28/30/11 24/22/11
